<?xml version="1.0" encoding="UTF-8"?>
<svg version="1.1" xmlns="http://www.w3.org/2000/svg" width="512" height="512">
<path d="M0 0 C1.01545898 0.19867676 2.03091797 0.39735352 3.07714844 0.60205078 C36.62922694 7.31347194 69.11416426 19.90902386 97 40 C97.60231445 40.43393066 98.20462891 40.86786133 98.82519531 41.31494141 C117.85388463 55.10624656 135.55927316 70.35400655 150 89 C151.17949219 90.47146484 151.17949219 90.47146484 152.3828125 91.97265625 C175.52509299 121.06032924 191.16213703 154.70621796 199.6875 190.8125 C199.97330933 191.99996826 199.97330933 191.99996826 200.26489258 193.21142578 C204.22751346 210.89187566 205.55536146 228.61300999 205.4375 246.6875 C205.43293793 248.18546112 205.43293793 248.18546112 205.42828369 249.71368408 C205.35621635 265.78341917 204.43972751 281.25213186 201 297 C200.78037598 298.02625488 200.56075195 299.05250977 200.33447266 300.10986328 C189.82149525 348.01719626 165.85138923 389.84996413 132 425 C130.87078125 426.19109375 130.87078125 426.19109375 129.71875 427.40625 C124.53885945 432.75597303 118.83594459 437.38660506 113 442 C111.51693359 443.19109375 111.51693359 443.19109375 110.00390625 444.40625 C77.79449373 469.8199188 40.14328241 486.17099039 0 494 C-1.24088379 494.24991699 -1.24088379 494.24991699 -2.50683594 494.50488281 C-30.08218506 499.80488028 -62.49800884 499.57960557 -90 494 C-91.01545898 493.80132324 -92.03091797 493.60264648 -93.07714844 493.39794922 C-142.9758035 483.41672289 -186.53871388 459.11419427 -223 424 C-223.7940625 423.2471875 -224.588125 422.494375 -225.40625 421.71875 C-230.75597303 416.53885945 -235.38660506 410.83594459 -240 405 C-240.7940625 404.01128906 -241.588125 403.02257812 -242.40625 402.00390625 C-265.32205725 372.96029611 -281.22147176 339.14314413 -289.6875 303.1875 C-289.87787842 302.39625732 -290.06825684 301.60501465 -290.2644043 300.78979492 C-294.22851721 283.10947098 -295.555362 265.38707345 -295.4375 247.3125 C-295.43445862 246.31385925 -295.43141724 245.31521851 -295.42828369 244.28631592 C-295.35621635 228.21658083 -294.43972751 212.74786814 -291 197 C-290.78037598 195.97374512 -290.56075195 194.94749023 -290.33447266 193.89013672 C-283.36781245 162.14326833 -271.07501623 131.47570558 -252 105 C-251.56606934 104.39768555 -251.13213867 103.79537109 -250.68505859 103.17480469 C-236.89375344 84.14611537 -221.64599345 66.44072684 -203 52 C-202.01902344 51.21367188 -201.03804688 50.42734375 -200.02734375 49.6171875 C-167.82849535 23.99964218 -130.2558129 7.85095605 -90 0 C-89.17274414 -0.16661133 -88.34548828 -0.33322266 -87.49316406 -0.50488281 C-59.91781494 -5.80488028 -27.50199116 -5.57960557 0 0 Z " fill="#2196F3" transform="translate(301,9)"/>
<path d="M0 0 C0.63711914 0.30067383 1.27423828 0.60134766 1.93066406 0.91113281 C10.90072784 5.23237914 18.63694957 10.2234799 26 17 C26.51804199 17.47034668 27.03608398 17.94069336 27.56982422 18.42529297 C47.22692376 36.44867691 60.86613602 61.62192454 62.12255859 88.63500977 C62.90136612 116.36763776 56.87089542 143.67833894 38 165 C37.30132812 165.81726563 36.60265625 166.63453125 35.8828125 167.4765625 C19.00561656 186.80649971 -4.87189361 200.82246074 -30.73828125 203.2578125 C-35.04182571 203.44908114 -37.31885036 203.41703039 -41.0625 201.125 C-44.37411132 197.49291017 -44.24506021 194.40378952 -44.3125 189.6875 C-44.36857422 187.71330078 -44.36857422 187.71330078 -44.42578125 185.69921875 C-43.94103981 181.48774957 -42.99473515 179.92915701 -40 177 C-37.25590203 175.72834484 -34.67981195 175.1025479 -31.6953125 174.65234375 C-12.39354205 171.70266666 5.57350065 161.25720467 17.58203125 145.7890625 C22.34615998 139.30358798 26.0836758 132.49253252 29 125 C29.44279297 123.89785156 29.44279297 123.89785156 29.89453125 122.7734375 C36.80997411 104.03701596 35.62969808 82.8204272 27.36547852 64.77319336 C17.11769389 43.84063452 0.9825395 29.7976856 -20.93359375 21.96484375 C-41.96635616 15.34689176 -64.08321433 18.8884669 -83.5 28.625 C-103.00328331 39.76973332 -115.13380303 57.84917404 -121.2734375 79.2578125 C-122.28610374 84.4735881 -122.64086227 89.70407478 -123 95 C-121.53191895 94.9685791 -121.53191895 94.9685791 -120.03417969 94.93652344 C-116.39647096 94.86402037 -112.75882584 94.81816367 -109.12060547 94.78027344 C-107.54725396 94.7601812 -105.97397692 94.73290201 -104.40087891 94.69824219 C-102.13685728 94.64961506 -99.87382427 94.62700865 -97.609375 94.609375 C-96.90818542 94.58872986 -96.20699585 94.56808472 -95.48455811 94.54681396 C-92.23133991 94.54532562 -90.24011962 94.84986749 -87.46191406 96.58691406 C-85.351566 100.0703276 -86.08750741 102.09852395 -87 106 C-88.82621765 108.58139038 -88.82621765 108.58139038 -91.2409668 111.00146484 C-92.14247971 111.91866302 -93.04399261 112.83586121 -93.9728241 113.78085327 C-94.96427137 114.75824262 -95.95642033 115.73492063 -96.94921875 116.7109375 C-97.96569776 117.72892021 -98.98121175 118.74786735 -99.99580383 119.76773071 C-102.12080635 121.89705624 -104.25597406 124.01545633 -106.39916992 126.12646484 C-109.14063735 128.82812709 -111.8568206 131.5536506 -114.56605816 134.28758812 C-116.65784384 136.39357922 -118.76163022 138.48723918 -120.86930275 140.5773201 C-121.87550992 141.57769287 -122.87818485 142.58163192 -123.87717247 143.58921432 C-125.27660963 144.99667231 -126.69400642 146.38620337 -128.11206055 147.77490234 C-128.91290573 148.56875336 -129.71375092 149.36260437 -130.53886414 150.18051147 C-133.47800256 152.35338161 -135.35422024 152.92912523 -139 153 C-141.00209045 151.8894043 -141.00209045 151.8894043 -142.78149414 150.13671875 C-143.46140411 149.48493652 -144.14131409 148.8331543 -144.84182739 148.16162109 C-145.55402435 147.44828613 -146.26622131 146.73495117 -147 146 C-147.73838104 145.29568848 -148.47676208 144.59137695 -149.23751831 143.86572266 C-154.43763078 138.90139918 -159.53271872 133.82768577 -164.63842773 128.76660156 C-166.51082579 126.91592431 -168.3894692 125.07154532 -170.27416992 123.23339844 C-173.00855228 120.56577786 -175.7228564 117.87911895 -178.43359375 115.1875 C-179.70063393 113.96220581 -179.70063393 113.96220581 -180.99327087 112.7121582 C-187.40040473 106.28208478 -187.40040473 106.28208478 -188.28540039 102.17578125 C-188 99 -188 99 -186.53808594 96.58691406 C-183.15479479 94.47154349 -180.2532731 94.49564696 -176.390625 94.609375 C-175.66381531 94.61503479 -174.93700562 94.62069458 -174.18817139 94.62652588 C-171.87476755 94.64885447 -169.5629328 94.69903952 -167.25 94.75 C-165.67840784 94.77006977 -164.10679132 94.78831971 -162.53515625 94.8046875 C-158.68950283 94.84870707 -154.84501711 94.91770625 -151 95 C-151.02030273 94.2265625 -151.04060547 93.453125 -151.06152344 92.65625 C-151.20084936 83.46642585 -149.54313353 75.76934703 -147 67 C-146.72285156 65.98035156 -146.44570312 64.96070313 -146.16015625 63.91015625 C-137.93348223 36.27308085 -118.11186009 16.04319167 -93.58984375 2.0546875 C-65.16440054 -13.02287251 -29.05988424 -13.7443337 0 0 Z " fill="#FDFEFE" transform="translate(319,159)"/>
</svg>
