<svg width="24" height="24" viewBox="0 0 24 24" fill="none" xmlns="http://www.w3.org/2000/svg">
  <path d="M12 2C6.48 2 2 6.48 2 12s4.48 10 10 10 10-4.48 10-10S17.52 2 12 2zm4.64 6.8c-.15 1.58-.8 5.42-1.13 7.19-.14.75-.42 1-.68 1.03-.58.05-1.02-.38-1.58-.75-.88-.58-1.38-.94-2.23-1.5-.99-.65-.35-1.01.22-1.59.15-.15 2.71-2.48 2.76-2.69a.2.2 0 00-.05-.18c-.06-.05-.14-.03-.21-.02-.09.02-.38.24-1.07.7-.96.66-1.89 1.31-1.89 1.31s-.27.17-.78.02c-.5-.16-1.07-.36-1.07-.36s-.8-.5.56-1.02c3.61-1.6 6.05-2.67 6.84-3.13.75-.43 1.9-.94 1.9.17z" fill="#0088cc"/>
</svg>
