<svg xmlns="http://www.w3.org/2000/svg" preserveAspectRatio="xMidYMid" viewBox="0 0 199.752 32.273"><style>.bc-1{fill:var(--custom-brand-color-1,var(--change-full-color,#fff))}.bc-2{fill:var(--custom-brand-color-2,var(--change-full-color,#f7b600))}.bc-1,.bc-2{transition:fill var(--custom-time,.3s) var(--custom-easing,ease-in-out)}</style><path d="M118.778 6.708a1.018 1.018 0 0 0-.958.829l-3.885 20.125a.66.66 0 0 0 .648.829h4.611a1.017 1.017 0 0 0 .958-.829l3.885-20.125a.66.66 0 0 0-.648-.829ZM66.303 23.025a4.713 4.713 0 0 1-1.917.544c-.44.026-1.165.078-1.606.078h-1.373a.658.658 0 0 1-.648-.829l2.02-10.438a1.017 1.017 0 0 1 .932-.829h1.528a10.546 10.546 0 0 1 1.58.129s1.424.181 1.632.44a1.181 1.181 0 0 1 .311.8 12.08 12.08 0 0 1-.207 1.658l-1.14 5.931a15.715 15.715 0 0 1-.415 1.58 2.43 2.43 0 0 1-.7.932m8.806-12.639a3.75 3.75 0 0 0-1.217-1.917A6.655 6.655 0 0 0 71.431 7.2a16.353 16.353 0 0 0-3.108-.44 33.124 33.124 0 0 0-1.606-.052h-8.262a1.018 1.018 0 0 0-.958.829l-3.886 20.125a.66.66 0 0 0 .647.829h8.392c.44 0 1.166-.026 1.606-.052a20.379 20.379 0 0 0 3.264-.414 10 10 0 0 0 2.9-1.269 6.49 6.49 0 0 0 1.891-1.865 5.972 5.972 0 0 0 .647-1.347c.129-.44.311-1.165.389-1.606l1.658-8.547a35.2 35.2 0 0 0 .233-1.632 4.718 4.718 0 0 0-.129-1.373M91.4 19.659a1.018 1.018 0 0 0 .958-.829l.622-3.212a.649.649 0 0 0-.648-.8h-7.667a.634.634 0 0 1-.622-.829l.311-1.606a1.045 1.045 0 0 1 .958-.829h8.444a.992.992 0 0 0 .932-.8l.622-3.212a.634.634 0 0 0-.622-.829h-14.66a1.018 1.018 0 0 0-.958.829l-3.885 20.125a.66.66 0 0 0 .647.829h14.66a1.041 1.041 0 0 0 .958-.829l.6-3.212a.622.622 0 0 0-.622-.8h-8.444a.67.67 0 0 1-.647-.829l.44-2.357a1.045 1.045 0 0 1 .958-.8ZM114.634 7.123c-.078 0-.518-.078-.958-.155 0 0-1.865-.311-3.134-.414a44.491 44.491 0 0 0-3.522-.155 23.122 23.122 0 0 0-4.377.337 8.628 8.628 0 0 0-2.927 1.088 5.645 5.645 0 0 0-1.813 1.943 10.75 10.75 0 0 0-.907 2.8 12.964 12.964 0 0 0-.311 2.875 3.3 3.3 0 0 0 .7 2.046 4.476 4.476 0 0 0 1.994 1.243 24.113 24.113 0 0 0 3.471.906c.958.181 1.735.337 2.253.492a3.061 3.061 0 0 1 1.036.44.588.588 0 0 1 .233.466 7.329 7.329 0 0 1-.13 1.114 3.834 3.834 0 0 1-.337 1.01 1.363 1.363 0 0 1-.518.57 2.309 2.309 0 0 1-1.01.337 15.194 15.194 0 0 1-1.709.078 19.709 19.709 0 0 1-3.6-.285c-1.114-.181-2.538-.518-2.538-.518-.414-.1-.829-.207-.881-.233-.078-.026-.285.311-.466.725l-1.217 2.694c-.181.44-.259.8-.181.829s.492.181.907.337a23.735 23.735 0 0 0 2.849.751 25.706 25.706 0 0 0 4.274.363 23.67 23.67 0 0 0 4.688-.389 8.71 8.71 0 0 0 3.134-1.217 5.42 5.42 0 0 0 1.839-2.072 10.952 10.952 0 0 0 .932-2.823 17.564 17.564 0 0 0 .363-2.642 2.781 2.781 0 0 0-.6-1.994 4.617 4.617 0 0 0-1.994-1.321 24.021 24.021 0 0 0-3.782-1.062 39.101 39.101 0 0 1-2.176-.466 2.673 2.673 0 0 1-1.01-.44.487.487 0 0 1-.207-.44 6.054 6.054 0 0 1 .156-1.14 2.55 2.55 0 0 1 .285-.855 1.215 1.215 0 0 1 .466-.492 2.37 2.37 0 0 1 .881-.259 11.971 11.971 0 0 1 1.5-.078 31.259 31.259 0 0 1 3.186.155c.984.078 2.772.337 2.772.337.44.052.855.13.906.13.078.026.259-.337.389-.751l1.01-3.03c.129-.44.181-.8.078-.829M137.711 7.33c.285-.337.155-.622-.285-.622h-5.517a1.984 1.984 0 0 0-1.321.622l-7.874 9.376a1.377 1.377 0 0 0-.181 1.373l4.636 9.661a1.363 1.363 0 0 0 1.14.751h5.387c.44 0 .648-.337.44-.751l-4.817-9.583a1.33 1.33 0 0 1 .155-1.347Z" class="bc-1"></path><path d="M157.992 7.537a.66.66 0 0 0-.647-.829h-17.976a1.018 1.018 0 0 0-.958.829l-.622 3.212a.649.649 0 0 0 .647.8h5.077a.67.67 0 0 1 .647.829l-2.957 15.284a.66.66 0 0 0 .648.829h4.61a1.018 1.018 0 0 0 .958-.829l2.953-15.282a1.045 1.045 0 0 1 .958-.829h5.077a1.02 1.02 0 0 0 .958-.8ZM165.296 23.959a4.163 4.163 0 0 1-2.746-.647 1.176 1.176 0 0 1-.466-.829 8.669 8.669 0 0 1 .129-1.632l1.243-6.372a8.519 8.519 0 0 1 .466-1.58 2.306 2.306 0 0 1 .881-.984 5.687 5.687 0 0 1 3.056-.673 4.26 4.26 0 0 1 2.746.647 1.177 1.177 0 0 1 .466.829 8.705 8.705 0 0 1-.156 1.632l-1.217 6.371a11.028 11.028 0 0 1-.466 1.58 2.375 2.375 0 0 1-.881.984 5.686 5.686 0 0 1-3.056.673m11.992-13.209a4.726 4.726 0 0 0-1.373-2.227 7.073 7.073 0 0 0-2.771-1.554 14.733 14.733 0 0 0-4.481-.57 16.572 16.572 0 0 0-4.636.57 10.377 10.377 0 0 0-3.367 1.528 7.714 7.714 0 0 0-2.15 2.15 7.33 7.33 0 0 0-.777 1.684c-.129.44-.311 1.166-.389 1.606l-1.4 7.2c-.078.44-.182 1.191-.233 1.658a6.112 6.112 0 0 0 .155 1.658 4.673 4.673 0 0 0 1.347 2.227 7.116 7.116 0 0 0 2.823 1.554 14.374 14.374 0 0 0 4.429.57 16.511 16.511 0 0 0 4.662-.57 10.77 10.77 0 0 0 3.341-1.5 8.149 8.149 0 0 0 2.15-2.176 7.334 7.334 0 0 0 .777-1.684c.13-.44.311-1.166.414-1.606l1.373-7.2a11.8 11.8 0 0 0 .233-1.632 5.735 5.735 0 0 0-.129-1.684M191.067 17.198a3.808 3.808 0 0 1-.674.078c-.44.026-1.166.052-1.606.052h-2.276a.66.66 0 0 1-.647-.829l.8-4.118a1.045 1.045 0 0 1 .958-.829h2.409c.285 0 .725.026 1.088.052a5.959 5.959 0 0 1 2.435.57c1.373.7 1.683 4.351-2.486 5.025m8.237-7.33a3.8 3.8 0 0 0-1.062-1.58 6.235 6.235 0 0 0-2.461-1.191 19.892 19.892 0 0 0-3.031-.337 33.083 33.083 0 0 0-1.606-.052h-8.806a1.018 1.018 0 0 0-.958.829l-3.885 20.125a.66.66 0 0 0 .648.829h4.61a1.017 1.017 0 0 0 .958-.829l.932-4.766a1.017 1.017 0 0 1 .958-.829h2.409s9.842 1.321 11.448-6.6a10.509 10.509 0 0 0-.155-5.595" class="bc-2"></path><path d="M19.862 2.124A4.134 4.134 0 0 0 18.515 4.3l-1.036 4.455a2.34 2.34 0 0 0 2.305 3.031h4.351a3.724 3.724 0 0 0 2.305-.881 3.917 3.917 0 0 0 1.347-2.15L28.823 4.3a2.352 2.352 0 0 0-2.305-3.059h-4.351a3.724 3.724 0 0 0-2.305.881" class="bc-1"></path><path d="M42.24 3.238h-3.885a3.246 3.246 0 0 0-2.046.8 3.584 3.584 0 0 0-1.217 1.891l-.544 2.411a9.561 9.561 0 0 1-3.238 4.973 8.473 8.473 0 0 1-5.931 2.124h-6.942a5.8 5.8 0 0 1-4.973-2.124 6.145 6.145 0 0 1-1.036-4.4l1.192-5.261A2.779 2.779 0 0 0 10.9 0H5.694a4.4 4.4 0 0 0-2.746 1.062 4.735 4.735 0 0 0-1.632 2.59L.1 8.962a2.779 2.779 0 0 0 2.72 3.652h4.92a5.345 5.345 0 0 1 4.015 2.124 6.559 6.559 0 0 1 .829 5.569l-1.632 7.1a4.106 4.106 0 0 0 .622 3.445 3.609 3.609 0 0 0 3.03 1.425h6.942a5.716 5.716 0 0 0 3.678-1.425A6.261 6.261 0 0 0 27.4 27.4l1.632-7.1a9.113 9.113 0 0 1 3.341-5.569 8.8 8.8 0 0 1 5.051-2.124h2.666a3.245 3.245 0 0 0 2.046-.8 3.5 3.5 0 0 0 1.217-1.917l.907-3.963a2.066 2.066 0 0 0-2.02-2.694" class="bc-2"></path></svg>