<?xml version="1.0" encoding="UTF-8"?>
<svg id="Layer_2" data-name="Layer 2" xmlns="http://www.w3.org/2000/svg" viewBox="0 0 1072.3 197">
  <defs>
    <style>
      .cls-1 {
        fill: #cfff00;
        stroke-width: 0px;
      }
    </style>
  </defs>
  <g id="Layer_1-2" data-name="Layer 1">
    <path class="cls-1" d="M0,168.8V10C0,4.48,4.48,0,10,0h297.54c10.28,0,13.86,13.64,4.92,18.7l-135.99,79.97c-8.95,5.06-5.36,18.7,4.92,18.7h126.47c5.52,0,10,4.48,10,10v41.43c0,5.52-4.48,10-10,10H10c-5.52,0-10-4.48-10-10ZM111.08,111.35l53.72-31.43c8.79-5.16,5.13-18.62-5.06-18.62h-53.72c-5.52,0-10,4.48-10,10v31.43c0,7.73,8.39,12.53,15.06,8.62Z"/>
    <path class="cls-1" d="M668.17,196.2l-167.1-70.84c-5.91-2.5-7.96-9.84-4.21-15.05l20.98-32.83c4.76-6.61.04-15.84-8.11-15.84l-68.64.25c-5.52,0-10.65,4.48-10.65,10v96.92c0,5.52-4.48,10-10,10h-76.03c-5.52,0-10-4.48-10-10V10c0-5.52,4.48-10,10-10h314.53c8.14,0,12.87,9.21,8.12,15.82l-44.12,61.69c-3.83,5.35-1.54,12.88,4.62,15.19l48.01,20.09c3.9,1.46,6.49,5.19,6.49,9.36v64.85c0,7.16-7.31,12-13.9,9.2Z"/>
    <path class="cls-1" d="M1072.3,10v158.8c0,5.52-4.48,10-10,10h-78.87c-5.52,0-10-4.48-10-10v-20.26c0-9.71-12.44-13.72-18.11-5.84l-22.99,31.94c-1.88,2.61-4.9,4.16-8.11,4.16h-220.92c-8.14,0-12.87-9.21-8.12-15.83L809.2,4.17c1.88-2.62,4.9-4.17,8.12-4.17h244.99c5.52,0,10,4.48,10,10ZM973.44,107.54v-36.29c0-5.52-4.48-10-10-10h-84.26c-3.21,0-6.22,1.54-8.1,4.14l-26.24,36.29c-4.78,6.61-.06,15.85,8.1,15.85h110.5c5.52,0,10-4.48,10-10Z"/>
  </g>
</svg>