<?xml version="1.0" standalone="no"?>
<!DOCTYPE svg PUBLIC "-//W3C//DTD SVG 20010904//EN"
 "http://www.w3.org/TR/2001/REC-SVG-20010904/DTD/svg10.dtd">
<svg version="1.0" xmlns="http://www.w3.org/2000/svg"
 width="340.000000pt" height="156.000000pt" viewBox="0 0 340.000000 156.000000"
 preserveAspectRatio="xMidYMid meet">

<g transform="translate(0.000000,156.000000) scale(0.100000,-0.100000)"
fill="#000000" stroke="none">
<path d="M217 1318 l-37 -33 -10 -115 c-5 -63 -10 -122 -10 -130 0 -9 24 7 60
40 60 55 60 55 33 60 -24 5 -28 10 -28 40 l0 35 72 3 c97 4 113 -6 112 -66 0
-26 -4 -69 -7 -97 -7 -47 -9 -50 -37 -50 -29 0 -30 2 -27 40 l3 40 -95 -95
-96 -95 -13 -173 c-7 -95 -10 -171 -6 -170 3 2 153 145 332 318 l326 315 -74
3 c-64 2 -76 6 -86 24 -11 21 -8 87 6 121 7 16 -6 17 -187 17 l-195 0 -36 -32z"/>
<path d="M715 855 l-190 -184 62 -1 c80 0 86 -9 74 -122 -4 -45 -7 -84 -7 -85
1 -1 35 31 76 72 l74 75 -41 0 c-46 0 -59 17 -47 64 l6 26 114 0 c142 0 140 3
125 -155 -10 -112 -16 -125 -58 -125 -29 0 -38 16 -34 65 l3 40 -164 -160
-163 -160 184 -3 c152 -2 188 0 207 13 48 31 52 48 73 332 12 150 21 281 21
291 0 16 -6 18 -53 14 -77 -6 -85 5 -76 104 4 43 7 79 6 81 -1 1 -88 -81 -192
-182z"/>
<path d="M1206 723 c-9 -82 -20 -156 -22 -165 -5 -16 4 -18 94 -18 98 0 100 0
104 25 5 25 4 25 -63 25 -81 0 -78 -9 -54 155 19 131 19 125 -13 125 l-28 0
-18 -147z"/>
<path d="M1446 728 c-10 -79 -20 -153 -23 -165 -4 -20 -1 -23 26 -23 19 0 31
5 31 13 0 15 28 239 35 285 6 30 4 32 -23 32 l-29 0 -17 -142z"/>
<path d="M1600 868 c0 -2 -9 -73 -20 -158 -11 -85 -20 -159 -20 -163 0 -5 12
-7 27 -5 27 3 28 5 42 110 7 59 17 105 21 103 5 -3 35 -53 67 -110 52 -94 61
-105 85 -105 16 0 28 3 28 8 0 4 9 74 20 156 11 81 20 152 20 157 0 5 -13 9
-29 9 -28 0 -28 -1 -35 -72 -9 -94 -17 -138 -25 -138 -3 0 -32 47 -64 105 -53
97 -60 105 -87 105 -17 0 -30 -1 -30 -2z"/>
<path d="M1950 866 c0 -2 -9 -71 -20 -152 -25 -185 -25 -174 5 -174 29 0 31 4
40 83 l6 57 81 0 81 0 -7 -71 -7 -70 27 3 28 3 18 140 c9 77 19 150 21 163 4
18 0 22 -24 22 -26 0 -28 -4 -34 -47 -3 -27 -7 -55 -8 -63 -2 -12 -20 -16 -85
-18 -92 -3 -88 -8 -73 81 8 47 8 47 -21 47 -15 0 -28 -2 -28 -4z"/>
<path d="M2327 763 c-25 -60 -57 -134 -71 -165 l-26 -58 33 0 c28 0 34 5 49
41 17 40 17 40 65 37 48 -3 48 -3 51 -40 3 -35 6 -38 33 -38 16 0 29 2 29 5 0
2 -11 74 -25 159 -14 85 -25 157 -25 160 0 4 -15 6 -33 6 -34 0 -35 -1 -80
-107z m86 -30 c3 -38 3 -71 0 -75 -6 -10 -61 -10 -66 0 -6 9 44 142 53 142 4
0 10 -30 13 -67z"/>
<path d="M2566 723 c-10 -82 -20 -156 -22 -165 -4 -14 1 -18 25 -18 29 0 30 1
36 65 4 36 11 68 16 71 24 14 53 -11 80 -72 26 -58 32 -64 59 -64 17 0 30 2
30 4 0 9 -48 107 -59 120 -11 13 -8 20 18 42 43 36 44 93 2 135 -27 26 -36 29
-99 29 l-69 0 -17 -147z m142 85 c33 -33 -2 -88 -56 -88 -31 0 -34 2 -28 23 3
12 6 34 6 50 0 24 4 27 33 27 18 0 38 -5 45 -12z"/>
<path d="M2870 857 c0 -16 -28 -239 -36 -285 l-5 -33 108 3 c103 3 108 4 111
26 3 21 1 22 -77 22 l-80 0 5 38 c9 62 9 62 69 62 48 0 55 2 55 20 0 17 -7 20
-49 20 -28 0 -52 3 -54 8 -2 4 -2 24 0 45 l5 37 64 0 c62 0 64 1 64 25 0 25
-1 25 -90 25 -67 0 -90 -3 -90 -13z"/>
<path d="M3135 845 c-14 -13 -26 -34 -26 -47 -3 -60 -2 -62 85 -135 33 -27 33
-48 1 -69 -25 -16 -33 -15 -97 11 -14 6 -18 2 -18 -17 0 -31 34 -48 93 -48 52
0 82 20 97 64 15 46 2 74 -59 125 -56 47 -61 59 -31 86 17 16 25 17 59 7 50
-16 51 -15 51 8 0 26 -29 40 -85 40 -35 0 -51 -6 -70 -25z"/>
<path d="M273 418 c-118 -118 -160 -167 -154 -177 5 -7 13 -12 19 -10 5 2 89
82 187 177 171 167 176 172 143 172 -30 0 -50 -17 -195 -162z"/>
<path d="M413 345 l-148 -144 60 -1 60 0 99 99 c64 64 94 101 86 106 -7 5 -9
20 -5 46 4 21 5 39 2 39 -3 0 -72 -65 -154 -145z"/>
<path d="M1198 329 c3 -76 0 -104 -10 -110 -8 -5 9 -9 43 -9 82 0 102 19 107
101 3 54 1 68 -18 92 -12 15 -29 26 -38 26 -15 -1 -15 -2 1 -6 54 -14 64 -161
13 -195 -6 -4 -28 -8 -49 -8 l-38 0 3 105 c2 65 -1 105 -7 105 -6 0 -9 -38 -7
-101z"/>
<path d="M1395 320 c0 -103 1 -110 20 -110 15 0 16 3 7 9 -10 6 -13 34 -10
110 2 63 -1 101 -7 101 -6 0 -10 -43 -10 -110z"/>
<path d="M1485 406 c-22 -34 -7 -60 53 -88 40 -20 47 -27 47 -53 0 -52 -86
-69 -105 -21 l-9 21 0 -21 c-1 -20 33 -44 63 -44 27 0 66 41 66 70 0 32 -11
43 -63 59 -44 15 -63 42 -47 70 5 11 15 22 22 24 10 4 10 6 1 6 -7 1 -20 -10
-28 -23z"/>
<path d="M1566 423 c6 -4 14 -15 17 -23 5 -11 6 -9 4 4 -1 11 -9 21 -17 23
-10 3 -11 2 -4 -4z"/>
<path d="M1620 410 c0 -11 2 -20 4 -20 2 0 6 9 9 20 3 11 1 20 -4 20 -5 0 -9
-9 -9 -20z"/>
<path d="M1688 329 c3 -76 0 -104 -10 -110 -9 -6 -3 -9 17 -9 20 0 26 3 17 9
-10 6 -13 34 -10 110 2 63 -1 101 -7 101 -6 0 -9 -38 -7 -101z"/>
<path d="M1752 416 c7 -8 15 -12 17 -11 5 6 -10 25 -20 25 -5 0 -4 -6 3 -14z"/>
<path d="M1808 329 c3 -76 0 -104 -10 -110 -9 -6 -3 -8 17 -8 17 0 24 3 18 6
-8 3 -13 23 -13 49 0 42 2 44 28 44 25 0 31 -7 51 -55 21 -49 41 -72 41 -45 0
6 -4 10 -9 10 -5 0 -17 20 -26 44 -17 43 -17 45 6 76 22 29 22 33 8 58 -8 15
-24 28 -34 29 -18 3 -17 2 2 -6 55 -24 30 -101 -33 -101 l-36 0 4 55 c2 32 -1
55 -7 55 -6 0 -9 -38 -7 -101z"/>
<path d="M1991 331 c1 -54 -2 -104 -5 -110 -4 -6 0 -11 11 -11 16 0 18 9 15
110 -2 64 -7 110 -13 110 -6 0 -9 -39 -8 -99z"/>
<path d="M2077 422 c6 -4 13 -23 15 -42 l3 -35 6 43 c4 37 2 42 -16 42 -12 0
-16 -3 -8 -8z"/>
<path d="M2167 420 c59 -24 27 -94 -39 -88 l-38 4 2 -51 c1 -50 1 -50 5 -7 4
41 5 42 42 42 44 0 61 -14 61 -51 0 -37 -21 -50 -74 -48 -25 2 -49 0 -52 -4
-12 -11 95 -8 117 3 23 13 26 72 4 90 -13 11 -13 15 0 33 8 12 15 29 15 38 0
19 -31 49 -51 48 -8 0 -4 -4 8 -9z"/>
<path d="M2260 334 c5 -87 7 -97 30 -114 33 -26 53 -25 87 4 26 23 28 30 31
115 4 83 2 91 -15 91 -14 0 -15 -2 -4 -9 19 -12 12 -165 -9 -185 -30 -28 -58
-29 -85 -2 -23 23 -25 33 -25 105 0 54 4 81 13 84 6 3 3 6 -8 6 -19 1 -20 -4
-15 -95z"/>
<path d="M2475 320 c0 -103 1 -110 20 -110 15 0 16 3 7 9 -10 6 -13 34 -10
110 2 63 -1 101 -7 101 -6 0 -10 -43 -10 -110z"/>
<path d="M2565 320 l0 -110 46 0 c71 0 92 22 97 101 3 54 1 68 -18 92 -13 16
-30 26 -43 26 -22 -2 -22 -2 1 -6 58 -11 72 -159 18 -195 -6 -4 -28 -8 -48 -8
l-38 0 0 99 c0 70 4 101 13 104 6 3 3 6 -8 6 -19 1 -20 -5 -20 -109z"/>
<path d="M2771 404 c-16 -20 -21 -41 -21 -86 0 -52 3 -63 29 -89 36 -35 60
-37 94 -5 29 27 42 80 34 133 -6 34 -31 73 -49 73 -4 0 1 -9 11 -19 42 -42 39
-146 -6 -181 -54 -42 -103 1 -103 92 0 49 4 63 25 83 13 14 20 25 15 25 -5 0
-18 -12 -29 -26z"/>
<path d="M2955 320 c0 -104 1 -110 20 -109 11 0 14 3 8 6 -8 3 -13 23 -13 49
0 42 1 44 29 44 26 0 33 -7 55 -57 15 -31 28 -54 31 -52 2 3 -7 29 -21 58
l-26 53 21 15 c39 27 19 103 -27 103 -12 0 -9 -4 8 -13 54 -27 28 -101 -34
-95 -30 3 -31 4 -31 56 0 28 -4 52 -10 52 -6 0 -10 -43 -10 -110z"/>
<path d="M3177 370 c-22 -78 -20 -90 3 -20 10 30 23 54 30 52 14 -3 8 20 -6
25 -6 2 -18 -24 -27 -57z"/>
<path d="M3224 364 c4 -15 10 -40 13 -57 l6 -30 -46 5 c-45 5 -46 5 -53 -26
-3 -17 -12 -34 -18 -38 -7 -5 -3 -8 9 -8 16 0 21 6 20 28 0 25 3 27 47 30 39
3 47 0 53 -17 3 -12 3 -25 0 -31 -4 -6 5 -10 22 -9 15 1 21 3 12 6 -11 3 -24
32 -39 88 -13 47 -25 85 -28 85 -2 0 -1 -12 2 -26z"/>
</g>
</svg>
