<?xml version="1.0" standalone="no"?>
<!DOCTYPE svg PUBLIC "-//W3C//DTD SVG 20010904//EN"
 "http://www.w3.org/TR/2001/REC-SVG-20010904/DTD/svg10.dtd">
<svg version="1.0" xmlns="http://www.w3.org/2000/svg"
 width="2000.000000pt" height="425.000000pt" viewBox="0 0 2000.000000 425.000000"
 preserveAspectRatio="xMidYMid meet">

<g transform="translate(0.000000,425.000000) scale(0.100000,-0.100000)"
fill="#000000" stroke="none">
<path d="M7 4243 c-4 -3 -7 -957 -7 -2120 l0 -2113 1065 0 1065 0 0 1330 0
1330 8608 2 8607 3 73 23 c285 88 485 295 558 577 28 111 24 285 -10 400 -90
302 -335 515 -646 565 -73 11 -19302 15 -19313 3z m16948 -559 c92 -50 139
-125 140 -224 0 -51 -6 -76 -26 -115 -28 -56 -91 -109 -147 -125 -25 -7 -2363
-10 -7414 -10 l-7378 0 0 250 0 250 7393 -2 7392 -3 40 -21z"/>
<path d="M2840 1110 l0 -1110 615 0 615 0 0 1110 0 1110 -615 0 -615 0 0
-1110z"/>
<path d="M4950 1110 l0 -1110 615 0 615 0 0 360 0 360 194 0 c151 0 196 -3
205 -14 14 -17 361 -687 361 -698 0 -4 313 -8 696 -8 l696 0 -45 82 c-32 61
-345 667 -364 708 -2 3 20 18 48 33 159 90 278 246 331 434 28 102 31 286 4
383 -73 272 -277 468 -571 552 l-80 23 -1352 3 -1353 2 0 -1110z m2004 598
c54 -16 128 -90 144 -144 26 -88 9 -166 -50 -230 -71 -77 -81 -79 -498 -79
l-365 0 -3 233 -2 232 366 0 c260 0 379 -4 408 -12z"/>
<path d="M9100 1110 l0 -1110 1355 0 1355 0 0 250 0 250 -740 0 -740 0 0 160
0 160 740 0 740 0 0 270 0 270 -740 0 -740 0 0 160 0 160 738 2 737 3 3 268 2
267 -1355 0 -1355 0 0 -1110z"/>
<path d="M12647 2213 c-4 -3 -7 -503 -7 -1110 l0 -1103 1240 0 1240 0 0 250 0
250 -620 0 -620 0 -2 858 -3 857 -611 3 c-336 1 -614 -1 -617 -5z"/>
<path d="M15540 1110 l0 -1110 1240 0 1240 0 -2 248 -3 247 -622 3 -623 2 0
860 0 860 -615 0 -615 0 0 -1110z"/>
<path d="M18530 1110 l0 -1110 615 0 615 0 0 1110 0 1110 -615 0 -615 0 0
-1110z"/>
</g>
</svg>
