<?xml version="1.0" standalone="no"?>
<!DOCTYPE svg PUBLIC "-//W3C//DTD SVG 20010904//EN"
 "http://www.w3.org/TR/2001/REC-SVG-20010904/DTD/svg10.dtd">
<svg version="1.0" xmlns="http://www.w3.org/2000/svg"
 width="821.000000pt" height="204.000000pt" viewBox="0 0 821.000000 204.000000"
 preserveAspectRatio="xMidYMid meet">

<g transform="translate(0.000000,204.000000) scale(0.100000,-0.100000)"
fill="#000000" stroke="none">
<path d="M382 1243 l4 -488 27 -82 c34 -102 95 -193 161 -242 65 -49 94 -64
186 -92 67 -21 94 -24 250 -24 137 0 189 4 240 18 158 43 265 127 330 261 64
131 70 187 70 697 l0 439 -175 0 -175 0 0 -387 c0 -415 -6 -484 -47 -576 -45
-100 -120 -149 -233 -151 -127 -2 -215 61 -261 187 -23 60 -23 74 -27 495 l-3
432 -175 0 -175 0 3 -487z"/>
<path d="M1850 1020 l0 -710 175 0 175 0 2 437 3 437 358 -437 359 -437 179 0
179 0 0 710 0 710 -175 0 -175 0 0 -440 c0 -242 -3 -440 -7 -440 -5 0 -168
198 -363 440 l-355 439 -177 1 -178 0 0 -710z"/>
<path d="M3986 1638 c-19 -51 -75 -198 -125 -326 -76 -200 -94 -237 -125 -265
-19 -18 -38 -45 -42 -60 l-7 -29 54 30 c64 36 171 70 334 107 440 99 584 145
651 210 39 37 44 47 44 86 l0 44 -29 -35 c-16 -19 -43 -43 -60 -53 l-31 -18
-11 28 c-5 15 -40 106 -76 201 l-66 172 -104 0 c-56 0 -103 -3 -103 -7 0 -5
27 -113 59 -241 32 -128 55 -234 51 -237 -13 -8 -266 -65 -288 -65 -18 0 -15
18 49 273 38 149 69 273 69 275 0 1 -47 2 -104 2 l-104 0 -36 -92z"/>
<path d="M5649 1715 c-102 -19 -176 -48 -248 -96 -106 -71 -160 -171 -161
-296 0 -106 28 -173 104 -248 76 -76 170 -125 371 -195 83 -28 175 -64 205
-79 101 -51 113 -119 28 -162 -35 -18 -64 -23 -159 -27 -134 -5 -248 11 -410
58 -57 16 -110 30 -116 30 -10 0 -13 -37 -13 -150 l0 -149 38 -10 c207 -56
373 -81 540 -81 264 0 420 68 493 215 21 44 24 64 24 155 -1 144 -23 200 -119
296 -58 58 -90 80 -176 122 -58 28 -166 72 -240 97 -197 68 -239 99 -205 152
23 34 72 52 177 65 133 17 374 -10 531 -58 16 -5 17 7 17 150 l0 155 -52 15
c-166 48 -486 68 -629 41z"/>
<path d="M6550 1020 l0 -710 175 0 175 0 0 199 0 199 233 5 c260 6 329 17 443
71 120 57 194 137 235 257 31 89 31 255 0 351 -42 131 -141 229 -287 284 -119
45 -225 54 -616 54 l-358 0 0 -710z m805 367 c92 -41 139 -128 116 -214 -16
-57 -42 -87 -103 -114 -49 -22 -68 -24 -260 -27 l-208 -4 0 192 0 192 208 -4
c171 -3 214 -7 247 -21z"/>
<path d="M4820 1321 c0 -21 -90 -96 -145 -122 -81 -38 -181 -66 -500 -139
-148 -34 -307 -75 -354 -91 -146 -50 -221 -115 -221 -194 l0 -26 56 40 c79 56
177 89 550 180 351 87 433 111 504 146 52 27 104 78 119 118 14 36 14 97 1 97
-5 0 -10 -4 -10 -9z"/>
<path d="M4872 1178 c-61 -98 -192 -151 -632 -258 -321 -77 -425 -107 -505
-144 -124 -57 -205 -150 -205 -233 l0 -37 48 46 c108 105 147 120 707 267 234
61 432 124 495 156 43 21 88 62 105 95 18 37 27 94 17 120 -8 22 -9 22 -30
-12z"/>
<path d="M4770 910 c-8 -5 -64 -26 -125 -46 -60 -20 -114 -40 -119 -45 -9 -8
90 -426 104 -442 4 -4 58 -15 121 -23 63 -8 152 -22 197 -30 46 -9 86 -14 88
-12 7 8 -229 608 -240 608 -6 0 -18 -5 -26 -10z"/>
<path d="M3834 636 c-192 -63 -291 -139 -331 -255 -13 -36 -21 -66 -19 -68 2
-2 41 3 87 11 46 9 135 22 198 30 63 8 117 19 121 23 4 4 23 72 42 151 31 123
33 142 19 142 -9 -1 -61 -16 -117 -34z"/>
</g>
</svg>
